<svg xmlns="http://www.w3.org/2000/svg" xmlns:xlink="http://www.w3.org/1999/xlink" version="1.1" data-diagram-type="SEQUENCE" style="width:1586px;height:753px;background:#FFFFFF;" width="1586px" height="753px" viewBox="0 0 1586 753" zoomAndPan="magnify" preserveAspectRatio="none" contentStyleType="text/css"><?plantuml 1.2026.7?><defs/><g font-family="sans-serif" lengthAdjust="spacing"><rect x="8" y="8" width="1565.265" height="16.641" fill="#FFC" style="stroke:#FD8;stroke-width:3;" rx="2.5" ry="2.5"/><text x="15" y="18.641" fill="#000" font-size="10" textLength="361.23" font-family="monospace">Please use CSS style instead of skinparam ParticipantPadding</text><rect x="31" y="32.641" width="167.952" height="705.852" fill="#F1F5F9" style="stroke:#181818;stroke-width:0.5;"/><text x="98.215" y="44.708" fill="#000" font-size="13" textLength="33.522" font-weight="700">User</text><rect x="278.305" y="32.641" width="414.722" height="705.852" fill="#DBEAFE" style="stroke:#181818;stroke-width:0.5;"/><text x="428.296" y="44.708" fill="#000" font-size="13" textLength="114.74" font-weight="700">agentUsage CLI</text><rect x="710.027" y="32.641" width="671.637" height="705.852" fill="#FEF3C7" style="stroke:#181818;stroke-width:0.5;"/><text x="964.84" y="44.708" fill="#000" font-size="13" textLength="162.011" font-weight="700">4 Health Audit Checks</text><rect x="1423.664" y="32.641" width="145.601" height="705.852" fill="#DCFCE7" style="stroke:#181818;stroke-width:0.5;"/><text x="1471.62" y="44.708" fill="#000" font-size="13" textLength="49.689" font-weight="700">Report</text><rect x="339.354" y="402.266" width="354.616" height="69.266" fill="none" style="stroke:#000;stroke-width:1.5;"/><rect x="339.354" y="489.531" width="365.673" height="69.266" fill="none" style="stroke:#000;stroke-width:1.5;"/><g><title>Developer . Sysadmin</title><rect x="111.476" y="128.07" width="8" height="528.125" fill="#000" fill-opacity="0"/><line x1="114.976" y1="128.07" x2="114.976" y2="656.195" style="stroke:#181818;stroke-width:0.5;stroke-dasharray:5,5;"/></g><g><title>agentusage doctor</title><rect x="351.854" y="128.07" width="8" height="528.125" fill="#000" fill-opacity="0"/><line x1="355.354" y1="128.07" x2="355.354" y2="656.195" style="stroke:#181818;stroke-width:0.5;stroke-dasharray:5,5;"/></g><g><title></title><rect x="350.354" y="157.203" width="10" height="488.992" fill="#FFF" style="stroke:#181818;stroke-width:1;"/></g><g><title>1. System . Terminal</title><rect x="793.338" y="128.07" width="8" height="528.125" fill="#000" fill-opacity="0"/><line x1="796.838" y1="128.07" x2="796.838" y2="656.195" style="stroke:#181818;stroke-width:0.5;stroke-dasharray:5,5;"/></g><g><title></title><rect x="791.838" y="186.336" width="10" height="29.133" fill="#FFF" style="stroke:#181818;stroke-width:1;"/></g><g><title>2. Config . Permissions</title><rect x="976.195" y="128.07" width="8" height="528.125" fill="#000" fill-opacity="0"/><line x1="979.695" y1="128.07" x2="979.695" y2="656.195" style="stroke:#181818;stroke-width:0.5;stroke-dasharray:5,5;"/></g><g><title></title><rect x="974.695" y="244.602" width="10" height="29.133" fill="#FFF" style="stroke:#181818;stroke-width:1;"/></g><g><title>3. Daemon . SQLite</title><rect x="1154.427" y="128.07" width="8" height="528.125" fill="#000" fill-opacity="0"/><line x1="1157.927" y1="128.07" x2="1157.927" y2="656.195" style="stroke:#181818;stroke-width:0.5;stroke-dasharray:5,5;"/></g><g><title></title><rect x="1152.927" y="302.867" width="10" height="29.133" fill="#FFF" style="stroke:#181818;stroke-width:1;"/></g><g><title>4. Tools . Hooks</title><rect x="1308.389" y="128.07" width="8" height="528.125" fill="#000" fill-opacity="0"/><line x1="1311.889" y1="128.07" x2="1311.889" y2="656.195" style="stroke:#181818;stroke-width:0.5;stroke-dasharray:5,5;"/></g><g><title></title><rect x="1306.889" y="361.133" width="10" height="29.133" fill="#FFF" style="stroke:#181818;stroke-width:1;"/></g><g><title>stdout .Checklist.</title><rect x="1492.964" y="128.07" width="8" height="528.125" fill="#000" fill-opacity="0"/><line x1="1496.464" y1="128.07" x2="1496.464" y2="656.195" style="stroke:#181818;stroke-width:0.5;stroke-dasharray:5,5;"/></g><g><title></title><rect x="1491.464" y="609.063" width="10" height="29.133" fill="#FFF" style="stroke:#181818;stroke-width:1;"/></g><text x="35" y="124.769" fill="#000" font-size="14" textLength="153.952">Developer / Sysadmin</text><ellipse cx="114.976" cy="60.273" rx="8" ry="8" fill="#E2E2F0" style="stroke:#181818;stroke-width:0.5;"/><path d="M114.976,68.273 L114.976,95.273 M101.976,76.273 L127.976,76.273 M114.976,95.273 L101.976,110.273 M114.976,95.273 L127.976,110.273" style="stroke:#181818;stroke-width:0.5;" fill="none"/><rect x="282.305" y="96.773" width="146.098" height="30.297" fill="#E2E2F0" style="stroke:#181818;stroke-width:0.5;" rx="2.5" ry="2.5"/><text x="289.305" y="116.769" fill="#000" font-size="14" textLength="132.098">agentusage doctor</text><rect x="714.027" y="96.773" width="165.621" height="30.297" fill="#E2E2F0" style="stroke:#181818;stroke-width:0.5;" rx="2.5" ry="2.5"/><text x="721.027" y="116.769" fill="#000" font-size="14" textLength="151.621">1. System &amp; Terminal</text><rect x="889.648" y="96.773" width="180.093" height="30.297" fill="#E2E2F0" style="stroke:#181818;stroke-width:0.5;" rx="2.5" ry="2.5"/><text x="896.648" y="116.769" fill="#000" font-size="14" textLength="166.093">2. Config &amp; Permissions</text><rect x="1079.741" y="96.773" width="156.372" height="30.297" fill="#E2E2F0" style="stroke:#181818;stroke-width:0.5;" rx="2.5" ry="2.5"/><text x="1086.741" y="116.769" fill="#000" font-size="14" textLength="142.372">3. Daemon &amp; SQLite</text><rect x="1246.113" y="96.773" width="131.551" height="30.297" fill="#E2E2F0" style="stroke:#181818;stroke-width:0.5;" rx="2.5" ry="2.5"/><text x="1253.113" y="116.769" fill="#000" font-size="14" textLength="117.551">4. Tools &amp; Hooks</text><rect x="1427.664" y="96.773" width="137.601" height="30.297" fill="#E2E2F0" style="stroke:#181818;stroke-width:0.5;" rx="2.5" ry="2.5"/><text x="1434.664" y="116.769" fill="#000" font-size="14" textLength="123.601">stdout (Checklist)</text><text x="35" y="669.19" fill="#000" font-size="14" textLength="153.952">Developer / Sysadmin</text><ellipse cx="114.976" cy="680.992" rx="8" ry="8" fill="#E2E2F0" style="stroke:#181818;stroke-width:0.5;"/><path d="M114.976,688.992 L114.976,715.992 M101.976,696.992 L127.976,696.992 M114.976,715.992 L101.976,730.992 M114.976,715.992 L127.976,730.992" style="stroke:#181818;stroke-width:0.5;" fill="none"/><rect x="282.305" y="656.195" width="146.098" height="30.297" fill="#E2E2F0" style="stroke:#181818;stroke-width:0.5;" rx="2.5" ry="2.5"/><text x="289.305" y="676.19" fill="#000" font-size="14" textLength="132.098">agentusage doctor</text><rect x="714.027" y="656.195" width="165.621" height="30.297" fill="#E2E2F0" style="stroke:#181818;stroke-width:0.5;" rx="2.5" ry="2.5"/><text x="721.027" y="676.19" fill="#000" font-size="14" textLength="151.621">1. System &amp; Terminal</text><rect x="889.648" y="656.195" width="180.093" height="30.297" fill="#E2E2F0" style="stroke:#181818;stroke-width:0.5;" rx="2.5" ry="2.5"/><text x="896.648" y="676.19" fill="#000" font-size="14" textLength="166.093">2. Config &amp; Permissions</text><rect x="1079.741" y="656.195" width="156.372" height="30.297" fill="#E2E2F0" style="stroke:#181818;stroke-width:0.5;" rx="2.5" ry="2.5"/><text x="1086.741" y="676.19" fill="#000" font-size="14" textLength="142.372">3. Daemon &amp; SQLite</text><rect x="1246.113" y="656.195" width="131.551" height="30.297" fill="#E2E2F0" style="stroke:#181818;stroke-width:0.5;" rx="2.5" ry="2.5"/><text x="1253.113" y="676.19" fill="#000" font-size="14" textLength="117.551">4. Tools &amp; Hooks</text><rect x="1427.664" y="656.195" width="137.601" height="30.297" fill="#E2E2F0" style="stroke:#181818;stroke-width:0.5;" rx="2.5" ry="2.5"/><text x="1434.664" y="676.19" fill="#000" font-size="14" textLength="123.601">stdout (Checklist)</text><polygon points="338.354,153.203,348.354,157.203,338.354,161.203,342.354,157.203" fill="#181818" style="stroke:#181818;stroke-width:1;stroke-linejoin:miter;stroke-miterlimit:10;"/><line x1="114.976" y1="157.203" x2="344.354" y2="157.203" style="stroke:#181818;stroke-width:1;"/><text x="121.976" y="152.137" fill="#000" font-size="13" font-weight="700">1</text><text x="135.021" y="152.137" fill="#000" font-size="13" textLength="198.333">agentusage doctor [--verbose]</text><polygon points="779.838,182.336,789.838,186.336,779.838,190.336,783.838,186.336" fill="#181818" style="stroke:#181818;stroke-width:1;stroke-linejoin:miter;stroke-miterlimit:10;"/><line x1="360.354" y1="186.336" x2="785.838" y2="186.336" style="stroke:#181818;stroke-width:1;"/><text x="367.354" y="181.27" fill="#000" font-size="13" font-weight="700">2</text><text x="380.399" y="181.27" fill="#000" font-size="13" textLength="340.895">Audit OS, architecture, and 24-bit TrueColor support</text><polygon points="371.354,211.469,361.354,215.469,371.354,219.469,367.354,215.469" fill="#181818" style="stroke:#181818;stroke-width:1;stroke-linejoin:miter;stroke-miterlimit:10;"/><line x1="365.354" y1="215.469" x2="790.838" y2="215.469" style="stroke:#181818;stroke-width:1;stroke-dasharray:2,2;"/><text x="377.354" y="210.403" fill="#000" font-size="13" font-weight="700">3</text><text x="390.399" y="210.403" fill="#000" font-size="13" textLength="213.542">[OK] linux/amd64 with TrueColor</text><polygon points="962.695,240.602,972.695,244.602,962.695,248.602,966.695,244.602" fill="#181818" style="stroke:#181818;stroke-width:1;stroke-linejoin:miter;stroke-miterlimit:10;"/><line x1="360.354" y1="244.602" x2="968.695" y2="244.602" style="stroke:#181818;stroke-width:1;"/><text x="367.354" y="239.536" fill="#000" font-size="13" font-weight="700">4</text><text x="380.399" y="239.536" fill="#000" font-size="13" textLength="319.528">Check settings.json &amp; credentials.json file modes</text><polygon points="371.354,269.734,361.354,273.734,371.354,277.734,367.354,273.734" fill="#181818" style="stroke:#181818;stroke-width:1;stroke-linejoin:miter;stroke-miterlimit:10;"/><line x1="365.354" y1="273.734" x2="973.695" y2="273.734" style="stroke:#181818;stroke-width:1;stroke-dasharray:2,2;"/><text x="377.354" y="268.668" fill="#000" font-size="13" font-weight="700">5</text><text x="390.399" y="268.668" fill="#000" font-size="13" textLength="329.869">[OK] credentials.json has secure 0600 permissions</text><polygon points="1140.927,298.867,1150.927,302.867,1140.927,306.867,1144.927,302.867" fill="#181818" style="stroke:#181818;stroke-width:1;stroke-linejoin:miter;stroke-miterlimit:10;"/><line x1="360.354" y1="302.867" x2="1146.927" y2="302.867" style="stroke:#181818;stroke-width:1;"/><text x="367.354" y="297.801" fill="#000" font-size="13" font-weight="700">6</text><text x="380.399" y="297.801" fill="#000" font-size="13" textLength="316.945">Ping daemon socket &amp; check SQLite DB integrity</text><polygon points="371.354,328,361.354,332,371.354,336,367.354,332" fill="#181818" style="stroke:#181818;stroke-width:1;stroke-linejoin:miter;stroke-miterlimit:10;"/><line x1="365.354" y1="332" x2="1151.927" y2="332" style="stroke:#181818;stroke-width:1;stroke-dasharray:2,2;"/><text x="377.354" y="326.934" fill="#000" font-size="13" font-weight="700">7</text><text x="390.399" y="326.934" fill="#000" font-size="13" textLength="396.322">[OK] Daemon active; SQLite PRAGMA integrity_check passed</text><polygon points="1294.889,357.133,1304.889,361.133,1294.889,365.133,1298.889,361.133" fill="#181818" style="stroke:#181818;stroke-width:1;stroke-linejoin:miter;stroke-miterlimit:10;"/><line x1="360.354" y1="361.133" x2="1300.889" y2="361.133" style="stroke:#181818;stroke-width:1;"/><text x="367.354" y="356.067" fill="#000" font-size="13" font-weight="700">8</text><text x="380.399" y="356.067" fill="#000" font-size="13" textLength="326.79">Check installed hooks (Claude, OpenCode, Codex)</text><polygon points="371.354,386.266,361.354,390.266,371.354,394.266,367.354,390.266" fill="#181818" style="stroke:#181818;stroke-width:1;stroke-linejoin:miter;stroke-miterlimit:10;"/><line x1="365.354" y1="390.266" x2="1305.889" y2="390.266" style="stroke:#181818;stroke-width:1;stroke-dasharray:2,2;"/><text x="377.354" y="385.2" fill="#000" font-size="13" font-weight="700">9</text><text x="390.399" y="385.2" fill="#000" font-size="13" textLength="380.974">[OK] Claude Code hook registered in /.claude/settings.json</text><path d="M339.354,402.266 L408.805,402.266 L408.805,409.398 L398.805,419.398 L339.354,419.398 L339.354,402.266" style="stroke:#000;stroke-width:1.5;" fill="#EEE"/><rect x="339.354" y="402.266" width="354.616" height="69.266" fill="none" style="stroke:#000;stroke-width:1.5;"/><text x="354.354" y="415.333" fill="#000" font-size="13" textLength="24.451" font-weight="700">opt</text><text x="423.805" y="414.476" fill="#000" font-size="11" textLength="119.523" font-weight="700">[With --detect flag]</text><line x1="360.354" y1="450.531" x2="402.354" y2="450.531" style="stroke:#181818;stroke-width:1;"/><line x1="402.354" y1="450.531" x2="402.354" y2="463.531" style="stroke:#181818;stroke-width:1;"/><line x1="361.354" y1="463.531" x2="402.354" y2="463.531" style="stroke:#181818;stroke-width:1;"/><polygon points="371.354,459.531,361.354,463.531,371.354,467.531,367.354,463.531" fill="#181818" style="stroke:#181818;stroke-width:1;stroke-linejoin:miter;stroke-miterlimit:10;"/><text x="367.354" y="445.465" fill="#000" font-size="13" textLength="18.091" font-weight="700">10</text><text x="389.445" y="445.465" fill="#000" font-size="13" textLength="281.525">Run credential &amp; tool auto-detection report</text><path d="M339.354,489.531 L408.805,489.531 L408.805,496.664 L398.805,506.664 L339.354,506.664 L339.354,489.531" style="stroke:#000;stroke-width:1.5;" fill="#EEE"/><rect x="339.354" y="489.531" width="365.673" height="69.266" fill="none" style="stroke:#000;stroke-width:1.5;"/><text x="354.354" y="502.598" fill="#000" font-size="13" textLength="24.451" font-weight="700">opt</text><text x="423.805" y="501.742" fill="#000" font-size="11" textLength="212.937" font-weight="700">[With --fix-legacy-statuslines flag]</text><line x1="360.354" y1="537.797" x2="402.354" y2="537.797" style="stroke:#181818;stroke-width:1;"/><line x1="402.354" y1="537.797" x2="402.354" y2="550.797" style="stroke:#181818;stroke-width:1;"/><line x1="361.354" y1="550.797" x2="402.354" y2="550.797" style="stroke:#181818;stroke-width:1;"/><polygon points="371.354,546.797,361.354,550.797,371.354,554.797,367.354,550.797" fill="#181818" style="stroke:#181818;stroke-width:1;stroke-linejoin:miter;stroke-miterlimit:10;"/><text x="367.354" y="532.731" fill="#000" font-size="13" textLength="18.091" font-weight="700">11</text><text x="389.445" y="532.731" fill="#000" font-size="13" textLength="292.583">Migrate and clean owned status-line settings</text><polygon points="1479.464,605.063,1489.464,609.063,1479.464,613.063,1483.464,609.063" fill="#181818" style="stroke:#181818;stroke-width:1;stroke-linejoin:miter;stroke-miterlimit:10;"/><line x1="360.354" y1="609.063" x2="1485.464" y2="609.063" style="stroke:#181818;stroke-width:1;"/><text x="367.354" y="596.43" fill="#000" font-size="13" textLength="18.091" font-weight="700">12</text><text x="389.445" y="588.864" fill="#000" font-size="13" textLength="187.757">Render diagnostic summary:</text><text x="389.445" y="603.997" fill="#000" font-size="13" textLength="273.267">"All systems healthy (4/4 checks passed)"</text><polygon points="125.976,634.195,115.976,638.195,125.976,642.195,121.976,638.195" fill="#181818" style="stroke:#181818;stroke-width:1;stroke-linejoin:miter;stroke-miterlimit:10;"/><line x1="119.976" y1="638.195" x2="1490.464" y2="638.195" style="stroke:#181818;stroke-width:1;stroke-dasharray:2,2;"/><text x="131.976" y="633.129" fill="#000" font-size="13" textLength="18.091" font-weight="700">13</text><text x="154.067" y="633.129" fill="#000" font-size="13" textLength="290.037">Clear status checklist with remediation hints</text><?plantuml-src VLHTJzim57tFhxZg90JIql9HcDP9aqfAnpGG7H_Q0qEJ6rzI3yUER0VQb_tsNTifJScqFgInSy_nkVUUQrOxhUfoZYQnJq9LpB0IJlLonZWNge23uzR-Z1adSb4nvLhVaxbUGk_Eekd1k-d1z7ZwCG7wiTnf0tuVc8NU19zHwefM0xXPMSPBeNe9AWw4RqXOWShTMVg3xE8hqKrEpyRJiq1NRGw7YGxSdZP0wW3XOVSjvn3EaKctW77DXODiWVcJzKhFfaVPXmurIGky1tt_wh247RX5GsAPx7MZCG_HXtt8j7eK1KNFVBIrGYlR1KmObbe5p55_lTg1c-yNmc4t_5phfwXds8TRhQMbuB3vDirhhBHnlcJPD3lxHrwEwze5AXjVTqCffB1khqKM-fL-NfTu19q2mtsQFgEPQuiF2JLPF3E7JNoID3XYy9KSDLM_kdaFpEGBIZ9tjK5QqO67mtHE7szDZPcMXB9rvRFOi197uddIjgBxgsyF88MgbmDMyfCXl0XgxojBmd4BtvP4xHf52u15vyZ1jl_RXXRa1ZbbAfXijXw5H2WrHzlIWtdYIRfwEl05bTfYJid2_id-FbGRMsmf9CQMmiOH8vZvwU9nPNN-XCvh3CgZMM1o2a8vB8nmgrOV0YHfUBewrmRqyVXfpJMx7d-v76_uViMJAcOjyhRSXhwbE5fqNLMXh6DI8eT5sD_D9AivzVkgGfLf_-QVoxsDua2GH9gkteWFe4091WkoB5AvwJ3uC-Zd8MAmrS-svCYVwCh13s-KDENeRGYFaXLXJbhbNvzzNQjMIwdqZeOF6DsM3PhwI5A2MsbsjkWVnJALMB1ybL8nQ7R8gsZ_UzobA8pNwgSYbyWKw1T56KPywWbU3HlFQvawZZDffWyql5omGcbBaq_pL9RCh4O_LMyi9TXmeLbOX0jn1Rl3mJ1woZQjffjWuyp0cpJqlZFXRg1Eaq3JI8jmVud4AJHO8Wa8vLcGdRQz7XdRTWfP_0K0?></g></svg>