<svg xmlns="http://www.w3.org/2000/svg" xmlns:xlink="http://www.w3.org/1999/xlink" version="1.1" data-diagram-type="SEQUENCE" style="width:1698px;height:637px;background:#FFFFFF;" width="1698px" height="637px" viewBox="0 0 1698 637" zoomAndPan="magnify" preserveAspectRatio="none" contentStyleType="text/css"><?plantuml 1.2026.7?><defs/><g font-family="sans-serif" lengthAdjust="spacing"><rect x="8" y="8" width="1677.57" height="16.641" fill="#FFC" style="stroke:#FD8;stroke-width:3;" rx="2.5" ry="2.5"/><text x="15" y="18.641" fill="#000" font-size="10" textLength="361.23" font-family="monospace">Please use CSS style instead of skinparam ParticipantPadding</text><rect x="31" y="32.641" width="167.952" height="589.586" fill="#F1F5F9" style="stroke:#181818;stroke-width:0.5;"/><text x="98.215" y="44.708" fill="#000" font-size="13" textLength="33.522" font-weight="700">User</text><rect x="278.305" y="32.641" width="154.098" height="589.586" fill="#DBEAFE" style="stroke:#181818;stroke-width:0.5;"/><text x="297.984" y="44.708" fill="#000" font-size="13" textLength="114.74" font-weight="700">agentUsage CLI</text><rect x="651.483" y="32.641" width="842.486" height="589.586" fill="#FEF3C7" style="stroke:#181818;stroke-width:0.5;"/><text x="991.721" y="44.708" fill="#000" font-size="13" textLength="162.011" font-weight="700">5 Health Audit Checks</text><rect x="1535.97" y="32.641" width="145.601" height="589.586" fill="#DCFCE7" style="stroke:#181818;stroke-width:0.5;"/><text x="1583.925" y="44.708" fill="#000" font-size="13" textLength="49.689" font-weight="700">Report</text><g><title>Developer . Sysadmin</title><rect x="111.476" y="128.07" width="8" height="411.859" fill="#000" fill-opacity="0"/><line x1="114.976" y1="128.07" x2="114.976" y2="539.93" style="stroke:#181818;stroke-width:0.5;stroke-dasharray:5,5;"/></g><g><title>agentusage doctor</title><rect x="351.854" y="128.07" width="8" height="411.859" fill="#000" fill-opacity="0"/><line x1="355.354" y1="128.07" x2="355.354" y2="539.93" style="stroke:#181818;stroke-width:0.5;stroke-dasharray:5,5;"/></g><g><title></title><rect x="350.354" y="157.203" width="10" height="372.727" fill="#FFF" style="stroke:#181818;stroke-width:1;"/></g><g><title>1. System . Terminal</title><rect x="734.794" y="128.07" width="8" height="411.859" fill="#000" fill-opacity="0"/><line x1="738.294" y1="128.07" x2="738.294" y2="539.93" style="stroke:#181818;stroke-width:0.5;stroke-dasharray:5,5;"/></g><g><title></title><rect x="733.294" y="186.336" width="10" height="29.133" fill="#FFF" style="stroke:#181818;stroke-width:1;"/></g><g><title>2. Config . Permissions</title><rect x="917.651" y="128.07" width="8" height="411.859" fill="#000" fill-opacity="0"/><line x1="921.151" y1="128.07" x2="921.151" y2="539.93" style="stroke:#181818;stroke-width:0.5;stroke-dasharray:5,5;"/></g><g><title></title><rect x="916.151" y="244.602" width="10" height="29.133" fill="#FFF" style="stroke:#181818;stroke-width:1;"/></g><g><title>3. Daemon . SQLite</title><rect x="1095.883" y="128.07" width="8" height="411.859" fill="#000" fill-opacity="0"/><line x1="1099.383" y1="128.07" x2="1099.383" y2="539.93" style="stroke:#181818;stroke-width:0.5;stroke-dasharray:5,5;"/></g><g><title></title><rect x="1094.383" y="302.867" width="10" height="29.133" fill="#FFF" style="stroke:#181818;stroke-width:1;"/></g><g><title>4. Tools . Hooks</title><rect x="1249.845" y="128.07" width="8" height="411.859" fill="#000" fill-opacity="0"/><line x1="1253.345" y1="128.07" x2="1253.345" y2="539.93" style="stroke:#181818;stroke-width:0.5;stroke-dasharray:5,5;"/></g><g><title></title><rect x="1248.345" y="361.133" width="10" height="29.133" fill="#FFF" style="stroke:#181818;stroke-width:1;"/></g><g><title>5. Statusline . Tmux</title><rect x="1406.045" y="128.07" width="8" height="411.859" fill="#000" fill-opacity="0"/><line x1="1409.545" y1="128.07" x2="1409.545" y2="539.93" style="stroke:#181818;stroke-width:0.5;stroke-dasharray:5,5;"/></g><g><title></title><rect x="1404.545" y="419.398" width="10" height="29.133" fill="#FFF" style="stroke:#181818;stroke-width:1;"/></g><g><title>stdout .Checklist.</title><rect x="1605.27" y="128.07" width="8" height="411.859" fill="#000" fill-opacity="0"/><line x1="1608.77" y1="128.07" x2="1608.77" y2="539.93" style="stroke:#181818;stroke-width:0.5;stroke-dasharray:5,5;"/></g><g><title></title><rect x="1603.77" y="492.797" width="10" height="29.133" fill="#FFF" style="stroke:#181818;stroke-width:1;"/></g><text x="35" y="124.769" fill="#000" font-size="14" textLength="153.952">Developer / Sysadmin</text><ellipse cx="114.976" cy="60.273" rx="8" ry="8" fill="#E2E2F0" style="stroke:#181818;stroke-width:0.5;"/><path d="M114.976,68.273 L114.976,95.273 M101.976,76.273 L127.976,76.273 M114.976,95.273 L101.976,110.273 M114.976,95.273 L127.976,110.273" style="stroke:#181818;stroke-width:0.5;" fill="none"/><rect x="282.305" y="96.773" width="146.098" height="30.297" fill="#E2E2F0" style="stroke:#181818;stroke-width:0.5;" rx="2.5" ry="2.5"/><text x="289.305" y="116.769" fill="#000" font-size="14" textLength="132.098">agentusage doctor</text><rect x="655.483" y="96.773" width="165.621" height="30.297" fill="#E2E2F0" style="stroke:#181818;stroke-width:0.5;" rx="2.5" ry="2.5"/><text x="662.483" y="116.769" fill="#000" font-size="14" textLength="151.621">1. System &amp; Terminal</text><rect x="831.104" y="96.773" width="180.093" height="30.297" fill="#E2E2F0" style="stroke:#181818;stroke-width:0.5;" rx="2.5" ry="2.5"/><text x="838.104" y="116.769" fill="#000" font-size="14" textLength="166.093">2. Config &amp; Permissions</text><rect x="1021.197" y="96.773" width="156.372" height="30.297" fill="#E2E2F0" style="stroke:#181818;stroke-width:0.5;" rx="2.5" ry="2.5"/><text x="1028.197" y="116.769" fill="#000" font-size="14" textLength="142.372">3. Daemon &amp; SQLite</text><rect x="1187.569" y="96.773" width="131.551" height="30.297" fill="#E2E2F0" style="stroke:#181818;stroke-width:0.5;" rx="2.5" ry="2.5"/><text x="1194.569" y="116.769" fill="#000" font-size="14" textLength="117.551">4. Tools &amp; Hooks</text><rect x="1329.12" y="96.773" width="160.85" height="30.297" fill="#E2E2F0" style="stroke:#181818;stroke-width:0.5;" rx="2.5" ry="2.5"/><text x="1336.12" y="116.769" fill="#000" font-size="14" textLength="146.85">5. Statusline &amp; Tmux</text><rect x="1539.97" y="96.773" width="137.601" height="30.297" fill="#E2E2F0" style="stroke:#181818;stroke-width:0.5;" rx="2.5" ry="2.5"/><text x="1546.97" y="116.769" fill="#000" font-size="14" textLength="123.601">stdout (Checklist)</text><text x="35" y="552.925" fill="#000" font-size="14" textLength="153.952">Developer / Sysadmin</text><ellipse cx="114.976" cy="564.727" rx="8" ry="8" fill="#E2E2F0" style="stroke:#181818;stroke-width:0.5;"/><path d="M114.976,572.727 L114.976,599.727 M101.976,580.727 L127.976,580.727 M114.976,599.727 L101.976,614.727 M114.976,599.727 L127.976,614.727" style="stroke:#181818;stroke-width:0.5;" fill="none"/><rect x="282.305" y="539.93" width="146.098" height="30.297" fill="#E2E2F0" style="stroke:#181818;stroke-width:0.5;" rx="2.5" ry="2.5"/><text x="289.305" y="559.925" fill="#000" font-size="14" textLength="132.098">agentusage doctor</text><rect x="655.483" y="539.93" width="165.621" height="30.297" fill="#E2E2F0" style="stroke:#181818;stroke-width:0.5;" rx="2.5" ry="2.5"/><text x="662.483" y="559.925" fill="#000" font-size="14" textLength="151.621">1. System &amp; Terminal</text><rect x="831.104" y="539.93" width="180.093" height="30.297" fill="#E2E2F0" style="stroke:#181818;stroke-width:0.5;" rx="2.5" ry="2.5"/><text x="838.104" y="559.925" fill="#000" font-size="14" textLength="166.093">2. Config &amp; Permissions</text><rect x="1021.197" y="539.93" width="156.372" height="30.297" fill="#E2E2F0" style="stroke:#181818;stroke-width:0.5;" rx="2.5" ry="2.5"/><text x="1028.197" y="559.925" fill="#000" font-size="14" textLength="142.372">3. Daemon &amp; SQLite</text><rect x="1187.569" y="539.93" width="131.551" height="30.297" fill="#E2E2F0" style="stroke:#181818;stroke-width:0.5;" rx="2.5" ry="2.5"/><text x="1194.569" y="559.925" fill="#000" font-size="14" textLength="117.551">4. Tools &amp; Hooks</text><rect x="1329.12" y="539.93" width="160.85" height="30.297" fill="#E2E2F0" style="stroke:#181818;stroke-width:0.5;" rx="2.5" ry="2.5"/><text x="1336.12" y="559.925" fill="#000" font-size="14" textLength="146.85">5. Statusline &amp; Tmux</text><rect x="1539.97" y="539.93" width="137.601" height="30.297" fill="#E2E2F0" style="stroke:#181818;stroke-width:0.5;" rx="2.5" ry="2.5"/><text x="1546.97" y="559.925" fill="#000" font-size="14" textLength="123.601">stdout (Checklist)</text><polygon points="338.354,153.203,348.354,157.203,338.354,161.203,342.354,157.203" fill="#181818" style="stroke:#181818;stroke-width:1;stroke-linejoin:miter;stroke-miterlimit:10;"/><line x1="114.976" y1="157.203" x2="344.354" y2="157.203" style="stroke:#181818;stroke-width:1;"/><text x="121.976" y="152.137" fill="#000" font-size="13" font-weight="700">1</text><text x="135.021" y="152.137" fill="#000" font-size="13" textLength="198.333">agentusage doctor [--verbose]</text><polygon points="721.294,182.336,731.294,186.336,721.294,190.336,725.294,186.336" fill="#181818" style="stroke:#181818;stroke-width:1;stroke-linejoin:miter;stroke-miterlimit:10;"/><line x1="360.354" y1="186.336" x2="727.294" y2="186.336" style="stroke:#181818;stroke-width:1;"/><text x="367.354" y="181.27" fill="#000" font-size="13" font-weight="700">2</text><text x="380.399" y="181.27" fill="#000" font-size="13" textLength="340.895">Audit OS, architecture, and 24-bit TrueColor support</text><polygon points="371.354,211.469,361.354,215.469,371.354,219.469,367.354,215.469" fill="#181818" style="stroke:#181818;stroke-width:1;stroke-linejoin:miter;stroke-miterlimit:10;"/><line x1="365.354" y1="215.469" x2="732.294" y2="215.469" style="stroke:#181818;stroke-width:1;stroke-dasharray:2,2;"/><text x="377.354" y="210.403" fill="#000" font-size="13" font-weight="700">3</text><text x="390.399" y="210.403" fill="#000" font-size="13" textLength="213.542">[OK] linux/amd64 with TrueColor</text><polygon points="904.151,240.602,914.151,244.602,904.151,248.602,908.151,244.602" fill="#181818" style="stroke:#181818;stroke-width:1;stroke-linejoin:miter;stroke-miterlimit:10;"/><line x1="360.354" y1="244.602" x2="910.151" y2="244.602" style="stroke:#181818;stroke-width:1;"/><text x="367.354" y="239.536" fill="#000" font-size="13" font-weight="700">4</text><text x="380.399" y="239.536" fill="#000" font-size="13" textLength="319.528">Check settings.json &amp; credentials.json file modes</text><polygon points="371.354,269.734,361.354,273.734,371.354,277.734,367.354,273.734" fill="#181818" style="stroke:#181818;stroke-width:1;stroke-linejoin:miter;stroke-miterlimit:10;"/><line x1="365.354" y1="273.734" x2="915.151" y2="273.734" style="stroke:#181818;stroke-width:1;stroke-dasharray:2,2;"/><text x="377.354" y="268.668" fill="#000" font-size="13" font-weight="700">5</text><text x="390.399" y="268.668" fill="#000" font-size="13" textLength="329.869">[OK] credentials.json has secure 0600 permissions</text><polygon points="1082.383,298.867,1092.383,302.867,1082.383,306.867,1086.383,302.867" fill="#181818" style="stroke:#181818;stroke-width:1;stroke-linejoin:miter;stroke-miterlimit:10;"/><line x1="360.354" y1="302.867" x2="1088.383" y2="302.867" style="stroke:#181818;stroke-width:1;"/><text x="367.354" y="297.801" fill="#000" font-size="13" font-weight="700">6</text><text x="380.399" y="297.801" fill="#000" font-size="13" textLength="316.945">Ping daemon socket &amp; check SQLite DB integrity</text><polygon points="371.354,328,361.354,332,371.354,336,367.354,332" fill="#181818" style="stroke:#181818;stroke-width:1;stroke-linejoin:miter;stroke-miterlimit:10;"/><line x1="365.354" y1="332" x2="1093.383" y2="332" style="stroke:#181818;stroke-width:1;stroke-dasharray:2,2;"/><text x="377.354" y="326.934" fill="#000" font-size="13" font-weight="700">7</text><text x="390.399" y="326.934" fill="#000" font-size="13" textLength="396.322">[OK] Daemon active; SQLite PRAGMA integrity_check passed</text><polygon points="1236.345,357.133,1246.345,361.133,1236.345,365.133,1240.345,361.133" fill="#181818" style="stroke:#181818;stroke-width:1;stroke-linejoin:miter;stroke-miterlimit:10;"/><line x1="360.354" y1="361.133" x2="1242.345" y2="361.133" style="stroke:#181818;stroke-width:1;"/><text x="367.354" y="356.067" fill="#000" font-size="13" font-weight="700">8</text><text x="380.399" y="356.067" fill="#000" font-size="13" textLength="326.79">Check installed hooks (Claude, OpenCode, Codex)</text><polygon points="371.354,386.266,361.354,390.266,371.354,394.266,367.354,390.266" fill="#181818" style="stroke:#181818;stroke-width:1;stroke-linejoin:miter;stroke-miterlimit:10;"/><line x1="365.354" y1="390.266" x2="1247.345" y2="390.266" style="stroke:#181818;stroke-width:1;stroke-dasharray:2,2;"/><text x="377.354" y="385.2" fill="#000" font-size="13" font-weight="700">9</text><text x="390.399" y="385.2" fill="#000" font-size="13" textLength="380.974">[OK] Claude Code hook registered in /.claude/settings.json</text><polygon points="1392.545,415.398,1402.545,419.398,1392.545,423.398,1396.545,419.398" fill="#181818" style="stroke:#181818;stroke-width:1;stroke-linejoin:miter;stroke-miterlimit:10;"/><line x1="360.354" y1="419.398" x2="1398.545" y2="419.398" style="stroke:#181818;stroke-width:1;"/><text x="367.354" y="414.333" fill="#000" font-size="13" textLength="18.091" font-weight="700">10</text><text x="389.445" y="414.333" fill="#000" font-size="13" textLength="296.874">Check tmux statusline segment configuration</text><polygon points="371.354,444.531,361.354,448.531,371.354,452.531,367.354,448.531" fill="#181818" style="stroke:#181818;stroke-width:1;stroke-linejoin:miter;stroke-miterlimit:10;"/><line x1="365.354" y1="448.531" x2="1403.545" y2="448.531" style="stroke:#181818;stroke-width:1;stroke-dasharray:2,2;"/><text x="377.354" y="443.465" fill="#000" font-size="13" textLength="18.091" font-weight="700">11</text><text x="399.445" y="443.465" fill="#000" font-size="13" textLength="300.479">[OK] agentusage statusline segment detected</text><polygon points="1591.77,488.797,1601.77,492.797,1591.77,496.797,1595.77,492.797" fill="#181818" style="stroke:#181818;stroke-width:1;stroke-linejoin:miter;stroke-miterlimit:10;"/><line x1="360.354" y1="492.797" x2="1597.77" y2="492.797" style="stroke:#181818;stroke-width:1;"/><text x="367.354" y="480.165" fill="#000" font-size="13" textLength="18.091" font-weight="700">12</text><text x="389.445" y="472.598" fill="#000" font-size="13" textLength="187.757">Render diagnostic summary:</text><text x="389.445" y="487.731" fill="#000" font-size="13" textLength="273.267">"All systems healthy (5/5 checks passed)"</text><polygon points="125.976,517.93,115.976,521.93,125.976,525.93,121.976,521.93" fill="#181818" style="stroke:#181818;stroke-width:1;stroke-linejoin:miter;stroke-miterlimit:10;"/><line x1="119.976" y1="521.93" x2="1602.77" y2="521.93" style="stroke:#181818;stroke-width:1;stroke-dasharray:2,2;"/><text x="131.976" y="516.864" fill="#000" font-size="13" textLength="18.091" font-weight="700">13</text><text x="154.067" y="516.864" fill="#000" font-size="13" textLength="290.037">Clear status checklist with remediation hints</text><?plantuml-src RPHlRzem4CRVvrESc5Irqe3-ezEOD8a6MATrAclfgwwQJ7m53yUER8V1cttsdPsmcAPzGMFdxkV7Ty-5bKwhCb-WIUnQg88PbiErtiuOvq8juMmGxS-OSI8J1LCkUfyiz1OwZnPD1zvDpwQ3wSS4w8zbJXlm-y0iTCQuGQaBMlNXOMSPpuNg9AWuK7uDOKjKxj7IFqXlln9kV3qPJIS1LpI7mrW7jiU6b3AayB3xcZc06sJIhM1KSk4WNM6sjbxfP7gHVcYXILhWdlNyeyCSZc2EXiGosMb7OnQYptkGQlKYbXGzyz7M2griEs7CCDSgv5pqzgiZUFXnAnosms-qNbTwBdimrrfQ2WwRxTXvNcv3w82aEqP5aKAXbqylNbVb7WjjdAzmEaqdRvJ1SLswWBFLut6ed1JMdKImqDxkvtr7Xj3g1pnrkniq2stnEI5FY0rpMCSdIPr715_uOTsakuVtm4oseffahZH8Aphm_BAxe9TpKsAg9MNPil2tQAZ4I3od6ojwklls35IASjjdER-wX3-2tF2Vad0yo8ybKNU7bMF0edDaUDlxRKF7CeESRYgOhBTUX4J8DKSRwS4iyP2sdbRwYafjCQFBmkdLwIaKZOiE518nKbWRQ0WpFuoyMbcThT5vZK5vvIqONuDG3fT6k5tKXv2Ir9osphrVVJn-shDczwCltqSDxrTrKi6iHHxBhV6HuihH-weAPHsJ4ZcimlvnAbd9gTzt1QfK-oV_kprf50T0Kc7QUglya1IGO719baKgDnq6V_kzB4Jq3_ePIwxuaU8mLtl1pYziCrqMbpdr4R8m_QLXZZhMYFMvIG2qfKQJyWQGe_V-OJK3BVPdDPb3kATvf3daWYsLjZJ4D1fvpink-5DrHbA23Pyo2wlmATp1yQ0_gEnXwwxHK3Sc2zoandlbOSof1XAPgTLMwVvxK0sKmHn9WBy_hCWPXxQjYB4pmYt-0G00?></g></svg>